<?xml version="1.0" encoding="UTF-8" standalone="no"?>
<!-- Created with Inkscape (http://www.inkscape.org/) -->

<svg
   width="420.5473"
   height="420.54721"
   viewBox="0 0 111.26981 111.26978"
   version="1.1"
   id="svg5"
   inkscape:version="1.2.2 (b0a8486541, 2022-12-01)"
   sodipodi:docname="tracker.svg"
   xmlns:inkscape="http://www.inkscape.org/namespaces/inkscape"
   xmlns:sodipodi="http://sodipodi.sourceforge.net/DTD/sodipodi-0.dtd"
   xmlns="http://www.w3.org/2000/svg"
   xmlns:svg="http://www.w3.org/2000/svg">
  <sodipodi:namedview
     id="namedview7"
     pagecolor="#ffffff"
     bordercolor="#111111"
     borderopacity="1"
     inkscape:showpageshadow="0"
     inkscape:pageopacity="0"
     inkscape:pagecheckerboard="false"
     inkscape:deskcolor="#d1d1d1"
     inkscape:document-units="px"
     showgrid="false"
     showborder="false"
     inkscape:zoom="1.09375"
     inkscape:cx="917.94286"
     inkscape:cy="416.45714"
     inkscape:window-width="1854"
     inkscape:window-height="1011"
     inkscape:window-x="0"
     inkscape:window-y="0"
     inkscape:window-maximized="1"
     inkscape:current-layer="layer1" />
  <defs
     id="defs2" />
  <g
     inkscape:label="Calque 1"
     inkscape:groupmode="layer"
     id="layer1"
     transform="translate(-214.08505,-59.146527)">
    <g
       id="g18406">
      <path
         style="opacity:1;fill:#ffe680;stroke:none;stroke-width:4.75924;stroke-linecap:round;stroke-dasharray:none;paint-order:stroke fill markers"
         d="m 281.95716,139.88488 a 42.440153,42.440153 0 0 1 -1.8005,0.5115 42.440153,42.440153 0 0 1 -0.80945,0.18769 42.440153,42.440153 0 0 0 2.60995,-0.69919 z"
         id="path15231" />
      <path
         style="opacity:1;fill:#ffe680;stroke:none;stroke-width:4.75924;stroke-linecap:round;stroke-dasharray:none;paint-order:stroke fill markers"
         d="m 284.94833,138.84404 a 42.440153,42.440153 0 0 1 -0.68963,0.26532 42.440153,42.440153 0 0 1 -2.03471,0.6955 42.440153,42.440153 0 0 1 -0.15005,0.0451 42.440153,42.440153 0 0 0 2.87439,-1.00583 z"
         id="path15229" />
      <path
         style="opacity:1;fill:#ffe680;stroke:none;stroke-width:4.75924;stroke-linecap:round;stroke-dasharray:none;paint-order:stroke fill markers"
         d="m 287.85512,137.58223 a 42.440153,42.440153 0 0 1 -1.59955,0.72964 42.440153,42.440153 0 0 1 -1.18025,0.48324 42.440153,42.440153 0 0 0 2.7798,-1.21288 z"
         id="path15227" />
      <path
         style="opacity:1;fill:#ffe680;stroke:none;stroke-width:4.75924;stroke-linecap:round;stroke-dasharray:none;paint-order:stroke fill markers"
         d="m 290.65949,136.10732 a 42.440153,42.440153 0 0 1 -0.54414,0.3112 42.440153,42.440153 0 0 1 -1.90596,0.9956 42.440153,42.440153 0 0 1 -0.22009,0.10443 42.440153,42.440153 0 0 0 2.67019,-1.4112 z"
         id="path15225" />
      <path
         style="opacity:1;fill:#ffe680;stroke:none;stroke-width:4.75924;stroke-linecap:round;stroke-dasharray:none;paint-order:stroke fill markers"
         d="m 293.34466,134.42839 a 42.440153,42.440153 0 0 1 -1.3764,0.89927 42.440153,42.440153 0 0 1 -1.16828,0.6994 42.440153,42.440153 0 0 0 2.54468,-1.59867 z"
         id="path15223" />
      <path
         style="opacity:1;fill:#ffe680;stroke:none;stroke-width:4.75924;stroke-linecap:round;stroke-dasharray:none;paint-order:stroke fill markers"
         d="m 295.79258,132.63051 a 42.440153,42.440153 0 0 1 -0.29576,0.24119 42.440153,42.440153 0 0 1 -1.73308,1.27266 42.440153,42.440153 0 0 1 -0.27119,0.18378 42.440153,42.440153 0 0 0 2.30003,-1.69763 z"
         id="path15221" />
      <path
         style="opacity:1;fill:#ffe680;stroke:none;stroke-width:4.75924;stroke-linecap:round;stroke-dasharray:none;paint-order:stroke fill markers"
         d="M 269.519,65.703109 A 33.60802,33.60802 0 0 1 303.12699,99.311105 33.60802,33.60802 0 0 1 269.519,132.9191 33.60802,33.60802 0 0 1 235.91101,99.311105 33.60802,33.60802 0 0 1 269.519,65.703109 Z"
         id="path15219" />
      <path
         id="rect17464"
         style="opacity:1;fill:#6affa1;stroke-width:7.86118;stroke-linecap:round;paint-order:stroke fill markers"
         d="M 214.08505,59.146526 H 325.35484 V 170.41631 H 214.08505 Z" />
      <path
         id="path18334"
         style="color:#000000;opacity:0.206963;fill:#000000;stroke-linecap:round;-inkscape-stroke:none;paint-order:stroke fill markers"
         d="m 269.45538,67.413455 -0.49506,0.0098 a 34.293672,34.293672 0 0 1 0.49506,0.01085 z m -1.21956,0.02377 -3.13779,0.06046 c -21.24681,0.406171 -38.2323,18.051571 -37.82612,39.298375 0.40617,21.24682 18.05208,38.23282 39.29889,37.82663 h 0.002 0.002 c 1.88047,-0.0376 3.74546,-0.26208 5.59759,-0.57257 l 10.8474,17.9865 c 3.40397,5.64393 10.87187,7.49366 16.51579,4.08967 5.06676,-3.0559 7.07263,-9.38605 4.96765,-14.73243 0.0263,2.65077 -1.31091,5.24013 -3.75429,6.7138 -3.67878,2.21876 -8.42659,1.0433 -10.64535,-2.6355 l -12.38942,-20.54241 a 34.293672,34.293672 0 0 1 -7.80314,1.05988 34.293672,34.293672 0 0 1 -34.94257,-33.63206 34.293672,34.293672 0 0 1 33.26722,-34.920347 z m 34.80666,28.492834 a 34.293672,34.293672 0 0 1 0.50074,5.117001 34.293672,34.293672 0 0 1 -12.14292,26.82627 34.293672,34.293672 0 0 0 0.11213,-0.0951 l 2.53938,4.21008 c 6.67414,-7.24519 10.53156,-16.69571 10.34511,-26.66452 v -0.002 c -0.0622,-3.251 -0.53155,-6.396479 -1.35444,-9.392191 z" />
      <path
         style="opacity:1;fill:#ffdd55;stroke:#ffffff;stroke-width:8.55184;stroke-linecap:round;stroke-dasharray:none;paint-order:stroke fill markers"
         d="m 268.60031,67.414901 a 34.293672,34.293672 0 0 0 -33.63194,34.942879 34.293672,34.293672 0 0 0 34.94289,33.63195 34.293672,34.293672 0 0 0 7.8028,-1.06015 l 12.38965,20.54263 c 2.21876,3.6788 6.96663,4.8542 10.64541,2.63544 3.67879,-2.21878 4.85419,-6.96664 2.63542,-10.64543 l -11.87195,-19.68408 a 34.293672,34.293672 0 0 1 -0.11241,0.0953 34.293672,34.293672 0 0 0 12.14302,-26.82661 34.293672,34.293672 0 0 0 -34.94289,-33.631879 z"
         id="path10923"
         inkscape:transform-center-y="13.552661"
         inkscape:transform-center-x="-0.51510462" />
      <path
         id="path13356"
         style="color:#000000;opacity:0.180657;fill:#000000;stroke-linecap:round;-inkscape-stroke:none;paint-order:stroke fill markers"
         inkscape:transform-center-x="0.71892905"
         inkscape:transform-center-y="-0.27587187"
         d="m 278.10602,130.14606 a 34.788519,34.788519 0 0 1 -1.04335,0.26148 34.788519,34.788519 0 0 0 0.66353,-0.15348 34.788519,34.788519 0 0 0 0.37982,-0.108 z" />
      <path
         id="path14845"
         style="color:#000000;opacity:0.180657;fill:#000000;stroke-linecap:round;-inkscape-stroke:none;paint-order:stroke fill markers"
         inkscape:transform-center-x="0.71892905"
         inkscape:transform-center-y="-0.27587187"
         d="m 279.20207,129.83445 a 34.788519,34.788519 0 0 1 -1.09605,0.31161 34.788519,34.788519 0 0 0 0.031,-0.008 34.788519,34.788519 0 0 0 1.06505,-0.30386 z" />
      <path
         id="path14843"
         style="color:#000000;opacity:0.180657;fill:#000000;stroke-linecap:round;-inkscape-stroke:none;paint-order:stroke fill markers"
         inkscape:transform-center-x="0.71892905"
         inkscape:transform-center-y="-0.27587187"
         d="m 279.70644,129.67115 a 34.788519,34.788519 0 0 1 -0.40876,0.13488 34.788519,34.788519 0 0 0 0.12299,-0.0372 34.788519,34.788519 0 0 0 0.28577,-0.0977 z" />
      <path
         id="path14841"
         style="color:#000000;opacity:0.180657;fill:#000000;stroke-linecap:round;-inkscape-stroke:none;paint-order:stroke fill markers"
         inkscape:transform-center-x="0.71892905"
         inkscape:transform-center-y="-0.27587187"
         d="m 280.80353,129.29598 a 34.788519,34.788519 0 0 1 -1.09709,0.37517 34.788519,34.788519 0 0 0 0.77669,-0.25631 34.788519,34.788519 0 0 0 0.3204,-0.11886 z" />
      <path
         id="path14839"
         style="color:#000000;opacity:0.180657;fill:#000000;stroke-linecap:round;-inkscape-stroke:none;paint-order:stroke fill markers"
         inkscape:transform-center-x="0.71892905"
         inkscape:transform-center-y="-0.27587187"
         d="m 281.6536,128.98127 a 34.788519,34.788519 0 0 1 -0.85007,0.31471 34.788519,34.788519 0 0 0 0.28473,-0.0971 34.788519,34.788519 0 0 0 0.56534,-0.21756 z" />
      <path
         id="path14837"
         style="color:#000000;opacity:0.180657;fill:#000000;stroke-linecap:round;-inkscape-stroke:none;paint-order:stroke fill markers"
         inkscape:transform-center-x="0.71892905"
         inkscape:transform-center-y="-0.27587187"
         d="m 282.86025,128.48363 a 34.788519,34.788519 0 0 1 -1.10226,0.45785 34.788519,34.788519 0 0 0 0.96738,-0.39636 34.788519,34.788519 0 0 0 0.13488,-0.0615 z" />
      <path
         id="path14835"
         style="color:#000000;opacity:0.180657;fill:#000000;stroke-linecap:round;-inkscape-stroke:none;paint-order:stroke fill markers"
         inkscape:transform-center-x="0.71892905"
         inkscape:transform-center-y="-0.27587187"
         d="m 284.0364,127.94723 a 34.788519,34.788519 0 0 1 -1.17615,0.5364 34.788519,34.788519 0 0 0 0.046,-0.0191 34.788519,34.788519 0 0 0 1.13016,-0.51728 z" />
      <path
         id="path14833"
         style="color:#000000;opacity:0.180657;fill:#000000;stroke-linecap:round;-inkscape-stroke:none;paint-order:stroke fill markers"
         inkscape:transform-center-x="0.71892905"
         inkscape:transform-center-y="-0.27587187"
         d="m 284.66479,127.63303 a 34.788519,34.788519 0 0 1 -0.51831,0.262 34.788519,34.788519 0 0 0 0.18035,-0.0858 34.788519,34.788519 0 0 0 0.33796,-0.17622 z" />
      <path
         id="path14831"
         style="color:#000000;opacity:0.180657;fill:#000000;stroke-linecap:round;-inkscape-stroke:none;paint-order:stroke fill markers"
         inkscape:transform-center-x="0.71892905"
         inkscape:transform-center-y="-0.27587187"
         d="m 285.57843,127.15554 a 34.788519,34.788519 0 0 1 -0.91364,0.47749 34.788519,34.788519 0 0 0 0.58653,-0.29714 34.788519,34.788519 0 0 0 0.32711,-0.18035 z" />
      <path
         id="path14829"
         style="color:#000000;opacity:0.180657;fill:#000000;stroke-linecap:round;-inkscape-stroke:none;paint-order:stroke fill markers"
         inkscape:transform-center-x="0.71892905"
         inkscape:transform-center-y="-0.27587187"
         d="m 286.33549,126.738 a 34.788519,34.788519 0 0 1 -0.75706,0.41754 34.788519,34.788519 0 0 0 0.31057,-0.16226 34.788519,34.788519 0 0 0 0.44649,-0.25528 z" />
      <path
         id="path14827"
         style="color:#000000;opacity:0.180657;fill:#000000;stroke-linecap:round;-inkscape-stroke:none;paint-order:stroke fill markers"
         inkscape:transform-center-x="0.71892905"
         inkscape:transform-center-y="-0.27587187"
         d="m 287.50493,126.03572 a 34.788519,34.788519 0 0 1 -1.05472,0.63665 34.788519,34.788519 0 0 0 0.95808,-0.57309 34.788519,34.788519 0 0 0 0.0966,-0.0636 z" />
      <path
         id="path14825"
         style="color:#000000;opacity:0.180657;fill:#000000;stroke-linecap:round;-inkscape-stroke:none;paint-order:stroke fill markers"
         inkscape:transform-center-x="0.71892905"
         inkscape:transform-center-y="-0.27587187"
         d="m 289.25883,124.85078 a 34.788519,34.788519 0 0 1 -0.60152,0.42891 34.788519,34.788519 0 0 0 0.22273,-0.15038 34.788519,34.788519 0 0 0 0.37879,-0.27853 z" />
      <path
         id="path14823"
         style="color:#000000;opacity:0.180657;fill:#000000;stroke-linecap:round;-inkscape-stroke:none;paint-order:stroke fill markers"
         inkscape:transform-center-x="0.71892905"
         inkscape:transform-center-y="-0.27587187"
         d="m 289.87222,124.40067 a 34.788519,34.788519 0 0 1 -0.61339,0.45011 34.788519,34.788519 0 0 0 0.35295,-0.25115 34.788519,34.788519 0 0 0 0.26044,-0.19896 z" />
      <path
         id="path14821"
         style="color:#000000;opacity:0.180657;fill:#000000;stroke-linecap:round;-inkscape-stroke:none;paint-order:stroke fill markers"
         inkscape:transform-center-x="0.71892905"
         inkscape:transform-center-y="-0.27587187"
         d="m 290.54298,123.88804 a 34.788519,34.788519 0 0 1 -0.67076,0.51263 34.788519,34.788519 0 0 0 0.4284,-0.31471 34.788519,34.788519 0 0 0 0.24236,-0.19792 z" />
      <path
         id="path10860"
         style="color:#000000;opacity:1;fill:#ffffff;stroke-width:0.316026;stroke-linecap:round;-inkscape-stroke:none;paint-order:stroke fill markers"
         d="m 269.72018,75.675317 c -0.21117,0 -0.42238,0.004 -0.63332,0.0129 v -3.1e-4 c -0.42184,0.0172 -0.84289,0.0522 -1.26223,0.1037 -0.41933,0.0515 -0.83612,0.12013 -1.25047,0.20561 -0.41437,0.0855 -0.82571,0.18717 -1.23267,0.30604 -0.40695,0.11889 -0.80954,0.25463 -1.20671,0.40616 -0.39722,0.1515 -0.78887,0.31868 -1.17404,0.50185 v 6.7e-4 c -0.3851,0.18323 -0.76367,0.38184 -1.13452,0.59559 -0.3709,0.21371 -0.73356,0.44219 -1.08815,0.68509 -0.35459,0.24287 -0.70068,0.49976 -1.03702,0.77034 -0.33628,0.27065 -0.66269,0.5551 -0.97889,0.85183 -0.31611,0.29661 -0.62214,0.60553 -0.9165,0.92646 v 6.7e-4 c -0.10133,0.11052 -0.20138,0.22186 -0.3,0.33511 -0.0986,0.11325 -0.19612,0.22786 -0.292,0.34377 h 6.3e-4 c -0.0959,0.11593 -0.19091,0.23278 -0.284,0.35128 v 6.7e-4 c -0.093,0.11847 -0.18456,0.23815 -0.27469,0.35912 -0.09,0.12074 -0.17892,0.24299 -0.26603,0.36614 l -6.3e-4,6.7e-4 c -0.0872,0.12339 -0.17269,0.2476 -0.25689,0.37333 -0.0843,0.12582 -0.16682,0.25276 -0.24807,0.38084 -0.0812,0.12795 -0.16086,0.25693 -0.23892,0.38704 -0.0781,0.1302 -0.15461,0.26147 -0.22962,0.39375 -0.075,0.13221 -0.14853,0.26525 -0.22031,0.39946 v 5e-4 c -0.0718,0.13428 -0.14196,0.26948 -0.21051,0.40567 -0.0685,0.13605 -0.13527,0.27253 -0.20054,0.4104 v 6.6e-4 c -0.0653,0.13801 -0.12942,0.27687 -0.1914,0.41661 -0.0619,0.13942 -0.12224,0.27996 -0.18079,0.42101 -0.0587,0.14133 -0.11506,0.28354 -0.17033,0.42641 h -6.3e-4 c -0.0552,0.1428 -0.10871,0.28656 -0.16054,0.43081 -0.0518,0.14405 -0.10155,0.28852 -0.14992,0.43392 l -6.3e-4,6.6e-4 v 6.7e-4 c -0.0484,0.14572 -0.0952,0.29184 -0.14012,0.43881 l 6.3e-4,-4.7e-4 c -0.045,0.14691 -0.0882,0.29449 -0.12966,0.44257 v 4.8e-4 c -0.0414,0.14804 -0.0813,0.29656 -0.11922,0.44567 -0.0379,0.14894 -0.0743,0.29822 -0.1086,0.44813 v 6.6e-4 c -0.0344,0.15009 -0.0667,0.30026 -0.0975,0.45123 v 6.6e-4 c -0.0308,0.15106 -0.0598,0.30233 -0.087,0.45417 -0.0272,0.15179 -0.0528,0.30382 -0.0764,0.45629 -0.0237,0.15247 -0.0454,0.30487 -0.0655,0.45793 -0.02,0.15308 -0.038,0.30679 -0.0544,0.46037 -0.0164,0.15353 -0.031,0.30726 -0.0438,0.46119 v 6.3e-4 c -0.0127,0.15393 -0.0236,0.30795 -0.0327,0.46218 -0.009,0.15405 -0.0167,0.30807 -0.0222,0.46233 v 6.3e-4 c -0.005,0.15443 -0.009,0.30846 -0.0106,0.46299 -0.002,0.15453 -0.002,0.30895 0,0.46348 0.002,0.15452 0.005,0.30921 0.0106,0.46364 0.005,0.15446 0.0131,0.30921 0.0222,0.46347 0.009,0.15387 0.02,0.30811 0.0327,0.46168 v 6.3e-4 c 0.0128,0.15393 0.0274,0.3075 0.0438,0.46103 0.0164,0.15352 0.0343,0.30686 0.0544,0.45988 0.02,0.15312 0.0418,0.30606 0.0655,0.45858 0.0236,0.15242 0.0492,0.3044 0.0764,0.45613 0.0272,0.15164 0.0563,0.30282 0.087,0.45368 v 6.3e-4 c 0.0308,0.15097 0.0631,0.30114 0.0975,0.45123 v 6.3e-4 c 0.0344,0.1501 0.0707,0.29965 0.1086,0.44878 0.0378,0.14898 0.0772,0.29711 0.11856,0.44503 l 6.3e-4,6.3e-4 v 6.3e-4 c 0.0415,0.14808 0.0847,0.29566 0.12967,0.44257 0.0448,0.14654 0.0912,0.29239 0.13947,0.43768 v 6.3e-4 l 6.3e-4,6.3e-4 c 0.0485,0.145653 0.0987,0.290283 0.15057,0.434573 h -6.3e-4 c 0.0518,0.14426 0.1053,0.28735 0.16054,0.43016 0.0553,0.14293 0.11233,0.28519 0.17098,0.42657 l 6.3e-4,6.3e-4 c 0.0587,0.14124 0.1188,0.28141 0.18079,0.42102 0.0619,0.13948 0.12557,0.27819 0.19075,0.41596 v 6.3e-4 c 0.0653,0.13793 0.13201,0.2751 0.20054,0.41121 0.0685,0.13613 0.13874,0.27128 0.21051,0.4055 0.0718,0.1342 0.14535,0.26709 0.22031,0.3993 0.075,0.13227 0.15147,0.26354 0.22961,0.39374 0.0779,0.12999 0.15726,0.25922 0.23827,0.38705 l 6.4e-4,6.3e-4 v 6.3e-4 c 0.0813,0.12796 0.16442,0.25449 0.24872,0.38019 0.0841,0.12549 0.1692,0.24968 0.25623,0.37284 l 6.3e-4,6.3e-4 c 0.0873,0.12345 0.17582,0.24561 0.26604,0.36663 0.09,0.12084 0.18162,0.24029 0.27452,0.35864 v 6.3e-4 l 6.4e-4,6.3e-4 c 0.0931,0.11845 0.18743,0.23542 0.28334,0.35128 0.0957,0.11569 0.19289,0.23009 0.29135,0.34312 0.0986,0.11325 0.19867,0.22525 0.3,0.33577 l 11.91452,12.99041 11.91452,-12.99041 c 0.29434,-0.32094 0.5777,-0.6533 0.84873,-0.99669 v -6.3e-4 c 0.27102,-0.34335 0.53023,-0.6972 0.77655,-1.06103 0.24641,-0.36403 0.48018,-0.73783 0.7006,-1.12032 v -6.3e-4 c 0.22028,-0.38237 0.42707,-0.77291 0.62026,-1.17159 v -6.3e-4 c 0.19324,-0.39854 0.37308,-0.80469 0.53827,-1.21732 v -6.3e-4 c 0.1652,-0.4129 0.31608,-0.83195 0.45237,-1.256683 0.13632,-0.42478 0.25812,-0.85437 0.36484,-1.28869 0.1067,-0.43426 0.19809,-0.87272 0.27469,-1.31417 0.0766,-0.44145 0.13842,-0.8857 0.18454,-1.33196 0.0461,-0.44625 0.0765,-0.89441 0.0919,-1.34307 0.0154,-0.44871 0.0154,-0.89763 0,-1.34634 -0.0154,-0.44865 -0.0458,-0.89682 -0.0919,-1.34307 -0.0461,-0.44626 -0.10794,-0.89051 -0.18454,-1.33196 -0.0766,-0.44144 -0.16799,-0.87926 -0.27469,-1.31351 v -6.7e-4 c -0.10673,-0.43425 -0.22853,-0.86396 -0.36484,-1.28869 -0.13629,-0.42473 -0.28717,-0.84395 -0.45237,-1.25684 -0.16526,-0.41287 -0.34493,-0.81905 -0.53827,-1.21781 -0.19326,-0.39878 -0.39989,-0.7896 -0.62026,-1.17208 -0.22042,-0.38255 -0.45418,-0.75622 -0.7006,-1.12032 v -6.6e-4 c -0.24641,-0.36397 -0.50542,-0.71756 -0.77655,-1.06103 -0.27112,-0.34352 -0.55428,-0.67629 -0.84873,-0.99734 -0.29425,-0.32083 -0.59984,-0.62994 -0.91585,-0.92647 -0.31619,-0.29673 -0.64341,-0.58118 -0.9797,-0.85183 -0.33633,-0.27057 -0.68226,-0.52747 -1.03686,-0.77033 -0.35458,-0.24291 -0.71724,-0.47138 -1.08814,-0.68509 -0.37085,-0.21375 -0.74942,-0.41236 -1.13452,-0.5956 v -6.6e-4 c -0.38511,-0.18317 -0.77688,-0.35035 -1.17405,-0.50186 -0.39723,-0.15153 -0.79969,-0.28727 -1.2067,-0.40615 -0.40696,-0.11888 -0.81831,-0.22074 -1.23267,-0.30621 -0.41436,-0.0855 -0.83114,-0.15394 -1.25047,-0.20545 -0.41935,-0.0515 -0.84039,-0.0865 -1.26224,-0.1037 -0.21094,-0.009 -0.42215,-0.0129 -0.63332,-0.0129 z m 0,11.46232 c 3.26301,0 5.87234,2.60949 5.87234,5.8725 0,3.26301 -2.60933,5.87234 -5.87234,5.87234 -3.263,0 -5.8725,-2.60933 -5.8725,-5.87234 0,-3.26301 2.6095,-5.8725 5.8725,-5.8725 z" />
      <path
         id="path7095"
         style="opacity:1;fill:#0066ff;stroke:none;stroke-width:1.57001;stroke-linecap:round;paint-order:stroke fill markers"
         d="m 269.15529,77.359057 a 15.106599,16.471011 0 0 0 -1.12652,0.0921 15.106599,16.471011 0 0 0 -1.11705,0.18356 15.106599,16.471011 0 0 0 -1.10137,0.27404 15.106599,16.471011 0 0 0 -1.07948,0.36304 15.106599,16.471011 0 0 0 -1.05173,0.44992 15.106599,16.471011 0 0 0 -1.01775,0.53452 15.106599,16.471011 0 0 0 -0.9784,0.61584 15.106599,16.471011 0 0 0 -0.93348,0.69375 15.106599,16.471011 0 0 0 -0.88319,0.76805 15.106599,16.471011 0 0 0 -0.82815,0.83778 15.106599,16.471011 0 0 0 -0.27142,0.30376 15.106599,16.471011 0 0 0 -0.26424,0.31127 15.106599,16.471011 0 0 0 -0.25689,0.31862 15.106599,16.471011 0 0 0 -0.24905,0.32565 15.106599,16.471011 0 0 0 -0.24153,0.3325 15.106599,16.471011 0 0 0 -0.23338,0.33919 15.106599,16.471011 0 0 0 -0.22553,0.3459 15.106599,16.471011 0 0 0 -0.21704,0.35177 15.106599,16.471011 0 0 0 -0.20887,0.35798 15.106599,16.471011 0 0 0 -0.20022,0.36353 15.106599,16.471011 0 0 0 -0.19157,0.36924 15.106599,16.471011 0 0 0 -0.18274,0.37415 15.106599,16.471011 0 0 0 -0.17393,0.37953 15.106599,16.471011 0 0 0 -0.16494,0.38411 15.106599,16.471011 0 0 0 -0.1558,0.38868 15.106599,16.471011 0 0 0 -0.14649,0.39276 15.106599,16.471011 0 0 0 -0.13735,0.39685 15.106599,16.471011 0 0 0 -0.1277,0.40077 15.106599,16.471011 0 0 0 -0.11841,0.40403 15.106599,16.471011 0 0 0 -0.1086,0.40713 15.106599,16.471011 0 0 0 -0.0991,0.41008 15.106599,16.471011 0 0 0 -0.0893,0.41268 15.106599,16.471011 0 0 0 -0.0795,0.4153 15.106599,16.471011 0 0 0 -0.0697,0.41726 15.106599,16.471011 0 0 0 -0.0599,0.41906 15.106599,16.471011 0 0 0 -0.05,0.42069 15.106599,16.471011 0 0 0 -0.04,0.42183 15.106599,16.471011 0 0 0 -0.0299,0.42281 15.106599,16.471011 0 0 0 -0.0201,0.42363 15.106599,16.471011 0 0 0 -0.01,0.42396 15.106599,16.471011 0 0 0 0,0.42412 15.106599,16.471011 0 0 0 0.01,0.42395 15.106599,16.471011 0 0 0 0.0201,0.42363 15.106599,16.471011 0 0 0 0.0299,0.42298 15.106599,16.471011 0 0 0 0.04,0.42183 15.106599,16.471011 0 0 0 0.05,0.42053 15.106599,16.471011 0 0 0 0.0599,0.41921 15.106599,16.471011 0 0 0 0.0697,0.4171 15.106599,16.471011 0 0 0 0.0795,0.4153 15.106599,16.471011 0 0 0 0.0893,0.41269 15.106599,16.471011 0 0 0 0.0991,0.41007 15.106599,16.471011 0 0 0 0.1086,0.4073 15.106599,16.471011 0 0 0 0.11841,0.40403 15.106599,16.471011 0 0 0 0.1277,0.4006 15.106599,16.471011 0 0 0 0.13735,0.39685 15.106599,16.471011 0 0 0 0.14649,0.392763 15.106599,16.471011 0 0 0 0.1558,0.38885 15.106599,16.471011 0 0 0 0.16494,0.38394 15.106599,16.471011 0 0 0 0.17393,0.37954 15.106599,16.471011 0 0 0 0.18274,0.3743 15.106599,16.471011 0 0 0 0.19157,0.36909 15.106599,16.471011 0 0 0 0.20022,0.36353 15.106599,16.471011 0 0 0 0.20887,0.35797 15.106599,16.471011 0 0 0 0.21704,0.3521 15.106599,16.471011 0 0 0 0.22553,0.34557 15.106599,16.471011 0 0 0 0.23338,0.3392 15.106599,16.471011 0 0 0 0.24153,0.33266 15.106599,16.471011 0 0 0 0.24905,0.32565 15.106599,16.471011 0 0 0 0.25689,0.31845 15.106599,16.471011 0 0 0 0.26424,0.31127 15.106599,16.471011 0 0 0 0.27142,0.30376 l 10.68201,11.64685 10.68202,-11.64685 a 15.106599,16.471011 0 0 0 0.76837,-0.90295 15.106599,16.471011 0 0 0 0.70436,-0.96288 15.106599,16.471011 0 0 0 0.63643,-1.01775 15.106599,16.471011 0 0 0 0.56473,-1.06692 15.106599,16.471011 0 0 0 0.49026,-1.10953 15.106599,16.471011 0 0 0 0.41268,-1.146603 15.106599,16.471011 0 0 0 0.33299,-1.17715 15.106599,16.471011 0 0 0 0.25134,-1.20083 15.106599,16.471011 0 0 0 0.16838,-1.21797 15.106599,16.471011 0 0 0 0.0844,-1.22826 15.106599,16.471011 0 0 0 0,-1.23186 15.106599,16.471011 0 0 0 -0.0844,-1.22826 15.106599,16.471011 0 0 0 -0.16838,-1.21798 15.106599,16.471011 0 0 0 -0.25134,-1.20082 15.106599,16.471011 0 0 0 -0.33299,-1.17699 15.106599,16.471011 0 0 0 -0.41268,-1.1466 15.106599,16.471011 0 0 0 -0.49026,-1.1097 15.106599,16.471011 0 0 0 -0.56473,-1.06675 15.106599,16.471011 0 0 0 -0.63643,-1.01792 15.106599,16.471011 0 0 0 -0.70436,-0.96288 15.106599,16.471011 0 0 0 -0.76837,-0.90295 15.106599,16.471011 0 0 0 -0.82815,-0.83778 15.106599,16.471011 0 0 0 -0.88319,-0.76805 15.106599,16.471011 0 0 0 -0.93349,-0.69375 15.106599,16.471011 0 0 0 -0.97839,-0.61584 15.106599,16.471011 0 0 0 -1.01776,-0.53452 15.106599,16.471011 0 0 0 -1.05156,-0.44992 15.106599,16.471011 0 0 0 -1.07965,-0.36304 15.106599,16.471011 0 0 0 -1.10137,-0.27404 15.106599,16.471011 0 0 0 -1.11704,-0.18356 15.106599,16.471011 0 0 0 -1.12652,-0.0921 15.106599,16.471011 0 0 0 -1.12979,0 z m 0.56489,8.10627 a 7.5446448,7.5446448 0 0 1 7.54465,7.54465 7.5446448,7.5446448 0 0 1 -7.54465,7.544643 7.5446448,7.5446448 0 0 1 -7.54464,-7.544643 7.5446448,7.5446448 0 0 1 7.54464,-7.54465 z" />
      <path
         id="path14848"
         style="opacity:0.180657;stroke-width:8.68081;stroke-linecap:round;paint-order:stroke fill markers"
         d="m 279.70644,125.01202 a 9.9864998,1.3989621 0 0 1 -9.9865,1.39896 9.9864998,1.3989621 0 0 1 -9.9865,-1.39896 9.9864998,1.3989621 0 0 1 9.9865,-1.39897 9.9864998,1.3989621 0 0 1 9.9865,1.39897 z" />
      <path
         id="path14926"
         style="opacity:1;fill:#ffffff;stroke:none;stroke-width:7.87784;stroke-linecap:round;stroke-dasharray:none;paint-order:stroke fill markers"
         d="m 269.71997,85.465583 a 7.5446448,7.5446448 0 0 0 -7.54425,7.544242 7.5446448,7.5446448 0 0 0 7.54425,7.544755 7.5446448,7.5446448 0 0 0 7.54476,-7.544755 7.5446448,7.5446448 0 0 0 -7.54476,-7.544242 z" />
    </g>
  </g>
</svg>
